/* XPM */
static char *_c184d8c9d2347458f941176c75f6a14alxYDFdHfyK2YDLZ[] = {
/* columns rows colors chars-per-pixel */
"28 27 8 1 ",
"  c None",
". c #134ECC",
"X c #88A7E6",
"o c #A9CCEF",
"O c #AED1F4",
"+ c #D1C3E9",
"@ c #E3F1FB",
"# c white",
/* pixels */
"           XXXXXX           ",
"         XXXXXXXXXX         ",
"      #XXXXXXXXXXXXXXO      ",
"    @@XXXXXXXXXXXXXXXOOO    ",
"   @@@XXXXXXXXXXXXXXXX#OO   ",
" @@@@@@XXXXXXXXXXXXXXXX#OOO ",
" X@@@@@XXXXXXXXXXXXXXXX###O ",
"@@@@@@@@@XXXXXXXXXXXX@@#####",
"@@@@@++@@@@XXXXXXXXX.X@#####",
"@@@@@@.+@@@@@@@@@@@.XX@@####",
"@@@@@+.+@@@@@@@@@@#XXXX@###o",
".@@@@..+@@@@@@@@@@#XXXXX@@.o",
"..@@@..++@@@@@@@@@#XXXXXX@o@",
" O......+@@@@@@@@@#XXXXXXX@ ",
" @O.....+@@@@@@@@@XXXXXXX@@ ",
"  @@O....@@@@@@@@@XXXXXX@@  ",
"   @@....@@@@@@@@@XXX@@@@   ",
"   @@@...@@@@@@@@@XX@@@@@   ",
"    @@@@O@O.......XX@@@@    ",
"     @@@O........XX@@@@     ",
"      @@OO......XX@@@@      ",
"       @OO.....XXX@@@       ",
"        OOO....XXX@@        ",
"         OOO..XXXX@         ",
"          OO..XXXO          ",
"           O...XXO          ",
"            ...O            "
};
