/* XPM */
static char *_94c2a0e19684978d937f88f7c6d24a5BTfjVfHq8DXBvQg2[] = {
/* columns rows colors chars-per-pixel */
"28 27 9 1 ",
"  c None",
". c #134ECC",
"X c #88A7E6",
"o c #A9CCEF",
"O c #AED1F4",
"+ c #D7D4DE",
"@ c #D1C3E9",
"# c #E3F1FB",
"$ c white",
/* pixels */
"           XXXXXX           ",
"         XXXXXXXXXX         ",
"      $XXXXXXXXXXXXXX$      ",
"    ##XXXXXXXXXXXXXXXX$$    ",
"   ###XXXXXXXXXXXXXXXX$$$   ",
" #####XXXXXXXXXXXXXXXX..$$$ ",
" #####XXXXXXXXXXXXXXX@...$$ ",
"#####XXXXXXXXXXXXXXX@@@....$",
"####XXXXX##XXXXXXXXX@@@.....",
"###XXXXXXX#######XXX@@@@....",
"oXXXXXXXXX#######XX@@X@@...o",
"oXXXXXXXXX#########@XX@@...o",
"oooXXXXXXXX########@XX@@..o#",
" oooXXXXXXX#######@XXXX@oo# ",
" oooooXXXXX######@@X@@oo### ",
"  oooooo+oX######@....####  ",
"   ooooooo...........####   ",
"   ooooooooo.......######   ",
"    #####..#O###..######    ",
"     ###...#OOO###OOOOO     ",
"      #....#OOO###OOOO      ",
"       ....#OOO###OOO       ",
"        ....#OO##OOO        ",
"         ...#OO##OO         ",
"          ..##O#OO          ",
"           .####O           ",
"            ###O            "
};
