/* XPM */
static char *result[] = {
/* columns rows colors chars-per-pixel */
"54 80 164 2 ",
"   c #2D132E",
".  c #2D142F",
"X  c #381229",
"o  c #241032",
"O  c #2D1430",
"+  c #2C1530",
"@  c #2C1631",
"#  c #2C1632",
"$  c #2C1733",
"%  c #2C1734",
"&  c #2B1935",
"*  c #2B1936",
"=  c #2B1A37",
"-  c #2C1835",
";  c #2B1B38",
":  c #2B1B39",
">  c #2B1C39",
",  c #2A1C3A",
"<  c #2A1D3B",
"1  c #2A1E3C",
"2  c #2A1E3D",
"3  c #2A1F3E",
"4  c #29203E",
"5  c #29203F",
"6  c #3F293D",
"7  c #3F293E",
"8  c #471826",
"9  c #471927",
"0  c #461928",
"q  c #461A29",
"w  c #461B2A",
"e  c #451C2B",
"r  c #451D2D",
"t  c #441E2E",
"y  c #441E2F",
"u  c #441F2F",
"i  c #441F30",
"p  c #432031",
"a  c #432132",
"s  c #432133",
"d  c #422234",
"f  c #432234",
"g  c #422335",
"h  c #412437",
"j  c #422436",
"k  c #412538",
"l  c #412539",
"z  c #41263A",
"x  c #40273B",
"c  c #4B263B",
"v  c #4B273C",
"b  c #4A273D",
"n  c #40283C",
"m  c #4A283D",
"M  c #4A283E",
"N  c #4A293F",
"B  c #292140",
"V  c #292241",
"C  c #292242",
"Z  c #292342",
"A  c #282343",
"S  c #282545",
"D  c #282546",
"F  c #282647",
"G  c #282747",
"H  c #272748",
"J  c #272849",
"K  c #27284A",
"L  c #27294B",
"P  c #262A4C",
"I  c #272A4C",
"U  c #262B4D",
"Y  c #262C4E",
"T  c #3F2A40",
"R  c #3E2B40",
"E  c #3E2C41",
"W  c #3E2C42",
"Q  c #3E2D43",
"!  c #3D2D44",
"~  c #3D2E45",
"^  c #3D2F45",
"/  c #3C3047",
"(  c #3B324B",
")  c #3C3048",
"_  c #262D50",
"`  c #262E50",
"'  c #252F52",
"]  c #253054",
"[  c #253155",
"{  c #243256",
"}  c #243357",
"|  c #23355A",
" . c #243459",
".. c #3F3D5B",
"X. c #3E3E5C",
"o. c #3E3F5D",
"O. c #3E3F5E",
"+. c #472D44",
"@. c #472D45",
"#. c #472E46",
"$. c #472E47",
"%. c #462F47",
"&. c #492940",
"*. c #492A40",
"=. c #492A41",
"-. c #482B42",
";. c #482C43",
":. c #462F48",
">. c #463049",
",. c #45314A",
"<. c #45324B",
"1. c #45324C",
"2. c #44334D",
"3. c #43344F",
"4. c #44344E",
"5. c #433550",
"6. c #423651",
"7. c #433651",
"8. c #423752",
"9. c #423753",
"0. c #413854",
"q. c #413955",
"w. c #423854",
"e. c #403A57",
"r. c #403B58",
"t. c #403C59",
"y. c #3D405E",
"u. c #3D405F",
"i. c #3D4161",
"p. c #3C4363",
"a. c #3B4464",
"s. c #3B4465",
"d. c #3B4566",
"f. c #3A4667",
"g. c #394769",
"h. c #3A4768",
"j. c #374B6E",
"k. c #39486A",
"l. c #38496B",
"z. c #384A6D",
"x. c #5F5D8E",
"c. c #5E5E90",
"v. c #5D5F92",
"b. c #675685",
"n. c #665786",
"m. c #685584",
"M. c #655887",
"N. c #625A8B",
"B. c #645888",
"V. c #645989",
"C. c #615C8D",
"Z. c #5B6193",
"A. c #5A6294",
"S. c #5A6295",
"D. c #596396",
"F. c #586497",
"G. c #576598",
"H. c #566599",
"J. c #55669A",
"K. c #56669A",
"L. c #D0B6FF",
"P. c #EABBFF",
"I. c #EEC9FF",
"U. c None",
/* pixels */
"U.U.U.U.U.U.U.U.U.U.U.U.U.U.U.U.U.U.U.U.U.U.I.I.I.I.I.I.I.I.I.I.U.U.U.U.U.U.U.U.U.U.U.U.U.U.U.U.U.U.U.U.U.U.",
"U.U.U.U.U.U.U.U.U.U.U.U.U.U.U.U.U.U.U.U.$.>.2.6.e.X.I.I.I.I.I.I.I.I.U.U.U.U.U.U.U.U.U.U.U.U.U.U.U.U.U.U.U.U.",
"U.U.U.U.U.U.U.U.U.U.U.U.U.U.U.U.U.U.;.;.@.%.,.3.w.t.O.p.h.I.I.I.I.I.I.I.U.U.U.U.U.U.U.U.U.U.U.U.U.U.U.U.U.U.",
"U.U.U.U.U.U.U.U.U.U.U.U.U.U.U.U.-.=.=.-.;.@.:.1.7.q.t.y.p.f.l.j.I.I.I.I.I.I.U.U.U.U.U.U.U.U.U.U.U.U.U.U.U.U.",
"U.U.U.U.U.U.U.U.U.U.U.U.U.U.*.*.&.&.&.*.-.;.#.>.2.7.0.t.o.i.s.h.l.z.j.I.I.I.I.I.U.U.U.U.U.U.U.U.U.U.U.U.U.U.",
"U.U.U.U.U.U.U.U.U.U.U.U.N N N M M M N N *.-.;.$.>.2.5.9.e...O.i.a.d.h.g.k.g.I.I.I.I.U.U.U.U.U.U.U.U.U.U.U.U.",
"U.U.U.U.U.U.U.U.U.U.b m m m m m m m m M N &.=.;.#.:.<.2.7.w.e.t.X.y.i.p.a.s.s.I.I.I.I.I.U.U.U.U.U.U.U.U.U.U.",
"U.U.U.U.U.U.U.U.8 9 9 9 v v v v v v b m m M N *.-.+.#.:.,.2.3.8.0.e.t...o.O.y.u.y.O.I.I.I.I.U.U.U.U.U.U.U.U.",
"U.U.U.U.U.U.8 8 8 8 8 8 8 8 8 c c c v v v b m M N &.=.;.+.$.:.,.2.3.6.w.q.e.r.t.t.t./ / / P.P.U.U.U.U.U.U.U.",
"U.U.U.U.8 8 8           8 8 8 8 8 c c c c c v v b m m N &.=.;.+.$.:.,.2.4.5.6.R E W Q ! ! ~ ^ P.U.U.U.U.U.U.",
"U.U.U.8     8 8 8 8 8 8       8 8 8 8 c c c c c c v v b m m N &.=.;.+.$.:.j k z x n S F G J L P / P.U.U.U.U.",
"U.U.8   8 8 8 8 8 8 8 8 8 8 8     8 8 8 8 c c c c c c c v v b m M N *.r y p a < 2 4 B C A D J P Y L.P.U.U.U.",
"U.8   8 8 8 8 8 8 8 8 8 8 8 8 8 8     8 8 8 8 8 8 8 8 8 8 8 8 9 9 0 q w e % & = : > 1 3 B Z F K Y ` L.P.U.U.",
"8 8 8 m.8 8 8 8 8 8 8 8 8 8 8 8 8 8 8   8 8 8 8 8 8 8 8 8 8 8 8 8 9 9 O + @ # $ - & = > < 5 A G P ` J.{ P.U.",
"8 8 8 m.m.m.8 8 8 8 8 8 8 8 8 8 8 8 8 8   8 8 8 8 8 8 8 8 8 8 8 8 8   . . O O + @ # % & ; < 5 S A.F.K.} L.L.",
"8 8 8 m.m.m.m.m.8 8 8 8 8 8 8 8 8 8 8 8 8   8 8 8 8 8 8 8 8 8 8 8           . . O + @ # - ; C.c.Z.D.H.{ | L.",
"8 8 8 m.m.m.m.m.m.m.8 8 8 8 8 8 8 8 8 8 8 8   8 8 8 8 8 8 8 8 8                   . O + n.B.N.x.v.S.G.[  .L.",
"8 8 8 8 8 m.m.m.m.m.m.m.8 8 8 8 8 8 8 8 8 8   8 8 8 8 8 8 8 8 8                     m.b.b.M.V.C.c.H Y ]  .L.",
"8 8   8 8 8 8 m.m.m.m.m.m.m.8 8 8 8 8 8 8 8 8   8 8 8 8 8 8 8                   m.m.m.m.b.n.B.< B D I ( } L.",
"8 8       8 8 8 8 m.m.m.m.m.m.m.8 8 8 8 8 8 8   8 8 8 8 8 8 8               m.m.m.m.m.m.m.@ - > 4 6 Q ) [ L.",
"8 8   8 8     8 8 8 8 m.m.m.m.m.m.m.8 8 8 8 8 8   8 8 8 8 8             m.m.m.m.m.m.m.    + % p g C G ^ ' L.",
"8 8   8 8   8     8 8 8 8 m.m.m.m.m.m.m.8 8 8 8   8 8 8 8 8         m.m.m.m.m.m.m.        q e = d B S Q _ L.",
"8 8   8 8   8 8 8     8 8 8 8 m.m.m.m.m.m.m.8 8 8   8 8 8       m.m.m.m.m.m.m.        8 8 + $ * f 5 A E U L.",
"8 8   8 8   8 8 8 8 8     8 8 8 8 m.m.m.m.m.m.m.8   8 8 8   m.m.m.m.m.m.m.        8 8     + # * s 4 C T L L.",
"8 8   8 8   8 8 8 8 8 8 8     8 8 8 8 m.m.m.m.m.8   8 8 8   m.m.m.m.m.        8 8         + # * a 2 V 7 J L.",
"8 8   8 8   8 8 8 8 8 8 8 8 8     8 8 8 8 m.m.m.8 8   8     m.m.m.        8 8             + # & p 1 5 n F L.",
"8 8   8 8   8 8 8 8 8 8 8 8 8 8 8     8 8 8 8 m.8 8   8     m.        8 8                 + # & p < 4 z S L.",
"8 8   8 8   8 8 8 8 8 8 8 8 8 8 8 8 8     8 8 8 8 8   8           8 8                     + # - i , 3 l A L.",
"8 8         8 8 8 8 8 8 8 8 8 8 8 8 8 8       8 8 8   8       8 8 8                       + # - u s g k Z L.",
"8 8   8 8     8 8 8 8 8 8 8 8 8 8 8 8 8   8 8   8 8   8     8     8                       + # r u > 1 h V L.",
"8 8   8 8   8     8 8 8 8 8 8 8 8 8 8 8   8 8   8 8   8     8     8                       q w - u > < j V L.",
"8 8   8 8   8 8 8     8 8 8 8 8 8 8 8 8   8 8   8 8   8     8     8                   8 8 + # - u : < j B L.",
"8 8   8 8   8 8 8 8 8     8 8 8 8 8 8 8   8 8   8 8   8     8     8               8 8     + # - y : < g 5 L.",
"8 8   8 8   8 8 8 8 8 8 8     8 8 8 8 8   8 8   8 8   8     8     8           8 8         + # - y : < g 5 L.",
"8 8   8 8   8 8 8 8 8 8 8 8 8     8 8 8   8 8   8 8   8     8     8       8 8             + # - y : < g 5 L.",
"8 8   8 8   8 8 8 8 8 8 8 8 8 8 8     8   8 8   8 8   8     8     8   8 8                 + # - y : < g 5 L.",
"8 8   8 8   8 8 8 8 8 8 8 8 8 8 8 8 8     8 8   8 8   8     8     8 8                     + # - y : < g 5 L.",
"8 8         8 8 8 8 8 8 8 8 8 8 8 8 8 8         8 8   8     8 8 8 8                       + # - y p f g 5 L.",
"8 8   8 8     8 8 8 8 8 8 8 8 8 8 8 8 8   8 8   8 8   8     8     8                       + # r y : < g 5 L.",
"8 8   8 8   8     8 8 8 8 8 8 8 8 8 8 8   8 8   8 8   8     8     8                       q w - y : < g 5 L.",
"8 8   8 8   8 8 8     8 8 8 8 8 8 8 8 8   8 8   8 8   8     8     8                   8 8 + # - y : < g 5 L.",
"8 8   8 8   8 8 8 8 8     8 8 8 8 8 8 8   8 8   8 8   8     8     8               8 8     + # - y : < g 5 L.",
"8 8   8 8   8 8 8 8 8 8 8     8 8 8 8 8   8 8   8 8   8     8     8           8 8         + # - y : < g 5 L.",
"8 8   8 8   8 8 8 8 8 8 8 8 8     8 8 8   8 8   8 8   8     8     8       8 8             + # - y : < g 5 L.",
"8 8   8 8   8 8 8 8 8 8 8 8 8 8 8     8   8 8   8 8   8     8     8   8 8                 + # - y : < g 5 L.",
"8 8   8 8   8 8 8 8 8 8 8 8 8 8 8 8 8     8 8   8 8   8     8     8 8                     + # - y : < g 5 L.",
"8 8         8 8 8 8 8 8 8 8 8 8 8 8 8 8         8 8   8     8 8 8 8                       + # - y p f g 5 L.",
"8 8   8 8     8 8 8 8 8 8 8 8 8 8 8 8 8   8 8   8 8   8     8     8                       + # r y : < g 5 L.",
"8 8   8 8   8     8 8 8 8 8 8 8 8 8 8 8   8 8   8 8   8     8     8                       q w - y : < g 5 L.",
"8 8   8 8   8 8 8     8 8 8 8 8 8 8 8 8   8 8   8 8   8     8     8                   8 8 + # - y : < g 5 L.",
"8 8   8 8   8 8 8 8 8     8 8 8 8 8 8 8   8 8   8 8   8     8     8               8 8     + # - y : < g 5 L.",
"8 8   8 8   8 8 8 8 8 8 8     8 8 8 8 8   8 8   8 8   8     8     8           8 8         + # - y : < g 5 L.",
"8 8   8 8   8 8 8 8 8 8 8 8 8     8 8 8   8 8   8 8   8     8     8       8 8             + # - y : < g 5 L.",
"8 8   8 8   8 8 8 8 8 8 8 8 8 8 8     8   8 8   8 8   8     8     8   8 8                 + # - y : < g 5 L.",
"8 8   8 8   8 8 8 8 8 8 8 8 8 8 8 8 8     8 8   8 8   8     8     8 8                     + # - y : < g 5 L.",
"8 8         8 8 8 8 8 8 8 8 8 8 8 8 8 8         8 8   8     8 8 8 8                       + # - y p f g 5 L.",
"8 8   8 8     8 8 8 8 8 8 8 8 8 8 8 8 8   8 8   8 8   8     8     8                       + # r y : < g 5 L.",
"8 8   8 8   8     8 8 8 8 8 8 8 8 8 8 8   8 8   8 8   8     8     8                       q w - y : < g 5 L.",
"8 8   8 8   8 8 8     8 8 8 8 8 8 8 8 8   8 8   8 8   8     8     8                   8 8 + # - y : < g 5 L.",
"8 8   8 8   8 8 8 8 8     8 8 8 8 8 8 8   8 8   8 8   8     8     8               8 8     + # - y : < g 5 L.",
"8 8   8 8   8 8 8 8 8 8 8     8 8 8 8 8   8 8   8 8   8     8     8           8 8         + # - y : < g 5 L.",
"8 8   8 8   8 8 8 8 8 8 8 8 8     8 8 8   8 8   8 8   8     8     8       8 8             + # - y : < g 5 L.",
"8 8   8 8   8 8 8 8 8 8 8 8 8 8 8     8   8 8   8 8   8     8     8   8 8                 + # - y : , g 4 L.",
"8 8   8 8   8 8 8 8 8 8 8 8 8 8 8 8 8     8 8   8 8   8     8     8 8                     + # % y ; , d 3 L.",
"8 8 8       8 8 8 8 8 8 8 8 8 8 8 8 8 8         8 8   8     8 8 8 8                       O # % t u a < 2 L.",
"8 8 8 8 8     8 8 8 8 8 8 8 8 8 8 8 8 8   8 8   8 8   8     8     8                       O @ e r = : , 1 L.",
"8 8 8 8 8 8 8     8 8 8 8 8 8 8 8 8 8 8   8 8   8 8   8     8     8                       0 q $ - * ; > < L.",
"U.U.8 8 8 8 8 8 8     8 8 8 8 8 8 8 8 8   8 8   8 8   8     8     8                   8 8 O + # % & * ; U.U.",
"U.U.U.U.8 8 8 8 8 8 8     8 8 8 8 8 8 8   8 8   8 8   8     8     8               8 8     . + @ $ % U.U.U.U.",
"U.U.U.U.U.U.8 8 8 8 8 8 8     8 8 8 8 8   8 8   8 8   8     8     8           8 8         . + + U.U.U.U.U.U.",
"U.U.U.U.U.U.U.U.8 8 8 8 8 8 8     8 8 8   8 8   8 8   8     8     8       8 8             . U.U.U.U.U.U.U.U.",
"U.U.U.U.U.U.U.U.U.U.8 8 8 8 8 8 8     8   8 8   8 8   8     8     8   8 8               U.U.U.U.U.U.U.U.U.U.",
"U.U.U.U.U.U.U.U.U.U.U.U.8 8 8 8 8 8 8     8 8   8 8   8     8     8 8               U.U.U.U.U.U.U.U.U.U.U.U.",
"U.U.U.U.U.U.U.U.U.U.U.U.U.U.8 8 8 8 8 8 8       8 8   8     8 8 8               U.U.U.U.U.U.U.U.U.U.U.U.U.U.",
"U.U.U.U.U.U.U.U.U.U.U.U.U.U.U.U.X X X X X X X o X X o X o o X o o o o o o o U.U.U.U.U.U.U.U.U.U.U.U.U.U.U.U.",
"U.U.U.U.U.U.U.U.U.U.U.U.U.U.U.U.U.U.X X X X X X X X o X o o o o o o o o U.U.U.U.U.U.U.U.U.U.U.U.U.U.U.U.U.U.",
"U.U.U.U.U.U.U.U.U.U.U.U.U.U.U.U.U.U.U.U.X X X X X X o X o o o o o o U.U.U.U.U.U.U.U.U.U.U.U.U.U.U.U.U.U.U.U.",
"U.U.U.U.U.U.U.U.U.U.U.U.U.U.U.U.U.U.U.U.U.U.X X X X o X o o o o U.U.U.U.U.U.U.U.U.U.U.U.U.U.U.U.U.U.U.U.U.U.",
"U.U.U.U.U.U.U.U.U.U.U.U.U.U.U.U.U.U.U.U.U.U.U.U.X X X X o o U.U.U.U.U.U.U.U.U.U.U.U.U.U.U.U.U.U.U.U.U.U.U.U.",
"U.U.U.U.U.U.U.U.U.U.U.U.U.U.U.U.U.U.U.U.U.U.U.U.U.U.X X U.U.U.U.U.U.U.U.U.U.U.U.U.U.U.U.U.U.U.U.U.U.U.U.U.U."
};
