/* XPM */
static char *_b7a50f01c7345c389eea312e13d624bniOQSMuUFkqIqqX2[] = {
/* columns rows colors chars-per-pixel */
"40 60 125 2 ",
"   c None",
".  c #171827",
"X  c #171B2B",
"o  c #161F30",
"O  c #162235",
"+  c #14253B",
"@  c #15283E",
"#  c #2C2A37",
"$  c #2B2C3A",
"%  c #5A1C27",
"&  c #4C2B27",
"*  c #57202C",
"=  c #552332",
"-  c #122540",
";  c #132B44",
":  c #112D4A",
">  c #13324C",
",  c #123552",
"<  c #123A56",
"1  c #113D5B",
"2  c #26274C",
"3  c #293344",
"4  c #283749",
"5  c #273A4E",
"6  c #28394A",
"7  c #263E54",
"8  c #383A67",
"9  c #373D6B",
"0  c #383A68",
"q  c #762D4D",
"w  c #782B4A",
"e  c #742F50",
"r  c #6E3659",
"t  c #6C395C",
"y  c #723354",
"u  c #693C60",
"i  c #11405E",
"p  c #254056",
"a  c #24435A",
"s  c #0F4B6E",
"d  c #114464",
"f  c #104768",
"g  c #104A6B",
"h  c #0F4E71",
"j  c #0F5176",
"k  c #0E557B",
"l  c #1F5474",
"z  c #1E5779",
"x  c #1D5A7D",
"c  c #234761",
"v  c #224964",
"b  c #214E6B",
"n  c #3C4864",
"m  c #35416F",
"M  c #394E6B",
"N  c #20516F",
"B  c #344271",
"V  c #3F477A",
"C  c #324878",
"Z  c #365373",
"A  c #6E4A4D",
"S  c #754343",
"D  c #714749",
"F  c #6B4D53",
"G  c #65535C",
"H  c #7C5D5F",
"J  c #4D4B62",
"K  c #4D4D69",
"L  c #524760",
"P  c #4C506C",
"I  c #465A75",
"U  c #615663",
"Y  c #7A5E61",
"T  c #776065",
"R  c #786064",
"E  c #AF394E",
"W  c #B0374C",
"Q  c #AB3C52",
"!  c #8F4F6C",
"~  c #964A66",
"^  c #984964",
"/  c #885373",
"(  c #80597C",
")  c #0D5982",
"_  c #1C5D82",
"`  c #2C5588",
"'  c #2A5A8F",
"]  c #275F95",
"[  c #3E6484",
"{  c #5F6D97",
"}  c #5E6F99",
"|  c #59729E",
" . c #67678E",
".. c #6D6388",
"X. c #776085",
"o. c #636B93",
"O. c #5575A2",
"+. c #927C8C",
"@. c #7886A0",
"#. c #7B96CE",
"$. c #6F99D3",
"%. c #7498D1",
"&. c #9C809E",
"*. c #8F85A7",
"=. c #8C86A9",
"-. c #9483A3",
";. c #9A81A0",
":. c #8989B8",
">. c #9E98BE",
",. c #A697BB",
"<. c #8294CB",
"1. c #9E97CE",
"2. c #9B98CF",
"3. c #9C98CF",
"4. c #9998D0",
"5. c #9A98D0",
"6. c #9B9BD1",
"7. c #C2C5FC",
"8. c #C5C8F9",
"9. c #C5C8F9",
"0. c #DADAFF",
"q. c #FFDBFF",
"w. c #E6EAFF",
"e. c #FFF2FF",
"r. c white",
/* pixels */
"                                                                                ",
"                          ; > < d h k 9.9.9.                                    ",
"                          @ ; > i f j ) 9.9.9.                                  ",
"                          O @ > < i h k ) 9.9.9.                                ",
"                          O @ ; > i d j ) 9.9.9.                                ",
"                          Q O @ ; , i g j 9.9.                                  ",
"                        E E Q O @ > i i h 9.9.                                  ",
"                        X E o ^ @ @ , i g 9.e.                                  ",
"                      . . X X o ^ ! / ( X.e.9.9.9.                              ",
"                    . . . . X X O @ @ > < d 9.9.9.9.                            ",
"                      . . . S D o O @ ; > < i f 9.9.                            ",
"                  ..  ..L . . . D o O @ ; U < <                                 ",
"                S S & & L S &.&.&.&.A F =.=.G G                                 ",
"                S & S & +.# # # $ # &.*.3 6 6 G G                               ",
"                S & S S +.S # ,.>.* $ &.>.= P F F                               ",
"                S & & S S y &.&.,.* &.&.;.*  .K A                               ",
"                  S S &   P &.&.&.&.&.&.;.;.&.K   A                             ",
"                    L S   V &.&.H &.&.&.;.;.;.    D                             ",
"                  S S &     H &.&.H Y &.;.;.      D                             ",
"                S S         / H &.&.&.&.;.      D                               ",
"                S S         H H Y Y &.          D                               ",
"                    S   . . . Y Y Y X                                           ",
"              w w w . . . . . . X X X o y r r t t                   Y           ",
"                w w . . . . . . 2.2.2.o y r t q.                R R R           ",
"                w w w . . . 1.1.3.2.2.O r r t 9.              -.-.T             ",
"                w w w . . 1.1.w 3.4.4.O r t u 7.7.          *.-.*.-.-.o.*.      ",
"                  w w . . w w w q e 4.O r t ; 7.7.          - + O     =.=.      ",
"                  w w . w w w w q q e o r t ; : 7.7.      ; - + +       } @.    ",
"                2 2 2 . w w w w w e e o r t - : 7.7.      - - -         |       ",
"                2 2 2 . w w w w q q e o O     : : 7.    7.; -           O.%.    ",
"                2 2 2 . 8 8 w w q q 9 o O     ; : : : : : - -           O.$.    ",
"              2 2 2 . . 8 8 8 8 0 9 9 o O       : : : : : - -           O.      ",
"              2 2 2 . 8 8 8 8 0 0 9 9 o O         : : : : :             O.$.    ",
"              2 2 . . 0 0 8 8 . 0 9 9 o O +       > , : : :             %.$.    ",
"              2 2 . . 0 0 0 . 8 . 9 0 m O + @       , < ,                 [     ",
"              2 2 . . 0 8 8 8 . 0 9 9 m O @ ;         1                 Z O.r.  ",
"            2 2 2 . . 0 8 8 . 8 . 9 9 m + @ > >                       M #.#.%.r.",
"            2 2 . . 8 8 8 8 # # # 0 m m @ ; > 1                       | <.I #.Z ",
"            2 2 . . 8 0 # # # # $ $ m m @ ; , 1 9.                    o.<.<.I M ",
"          J J 2 . 8 # # # # # # # $ 3 3 C > < 1 9.9.                    o.n n   ",
"        6.6.J . . 8 # # # # # # # $ 3 3 6 > 1 d 9.9.                            ",
"  6.6.6.6.:.J . . # # # # # # # $ $ 3 4 5 > 1 d 9.9.9.                          ",
":.:.:.    . . . # # # # #       # $ $ 3 5 a 1 f j 9.                            ",
"          . . . # # # # #           3 3 6 a v f j 9.                            ",
"        . . . . # # # #               3 6 a c d h                               ",
"      . . . . . # # # #               3 6 7 c b h                               ",
"      . . V .   # # # #                 4 7 a b g 9.                            ",
"        V   .   # # # #                 4 5 a v z k 9.                          ",
"              # # # # #                     a c N x 9.9.                        ",
"              # # # # #                     7 v b x 0.                          ",
"              # # # #                         a b z 0.                          ",
"          # # # # # #                           v z _ 0.                        ",
"          # # # # #                             c N x 0.                        ",
"          # # # #                                 b z 0.                        ",
"        # # # # #                                 b z _ 0.                      ",
"        # # # #                                   c N x 0.                      ",
"        # # # #                                   a b z 0.0.                    ",
"        # . .                                     a < N x 0.                    ",
"    0 . . . .                                       , i f 9.                    ",
"    0 0 8 8 .                                       > < ' ] w.                  ",
"      0 8                                             > ` ' w.                  "
};
