/* XPM */
static char *result[] = {
/* columns rows colors chars-per-pixel */
"40 61 121 2 ",
"   c #171827",
".  c #171B2B",
"X  c #161F30",
"o  c #162235",
"O  c #14253B",
"+  c #15283E",
"@  c #2C2A37",
"#  c #2B2C3A",
"$  c #5A1C27",
"%  c #4C2B27",
"&  c #57202C",
"*  c #552332",
"=  c #122540",
"-  c #132B44",
";  c #112D4A",
":  c #13324C",
">  c #123552",
",  c #123A56",
"<  c #113D5B",
"1  c #26274C",
"2  c #293344",
"3  c #283749",
"4  c #273A4E",
"5  c #28394A",
"6  c #263E54",
"7  c #383A67",
"8  c #373D6B",
"9  c #383A68",
"0  c #762D4D",
"q  c #782B4A",
"w  c #742F50",
"e  c #6E3659",
"r  c #6C395C",
"t  c #723354",
"y  c #693C60",
"u  c #11405E",
"i  c #254056",
"p  c #24435A",
"a  c #0F4B6E",
"s  c #114464",
"d  c #104768",
"f  c #104A6B",
"g  c #0F4E71",
"h  c #0F5176",
"j  c #0E557B",
"k  c #1F5474",
"l  c #1E5779",
"z  c #1D5A7D",
"x  c #234761",
"c  c #224964",
"v  c #214E6B",
"b  c #3C4864",
"n  c #35416F",
"m  c #394E6B",
"M  c #20516F",
"N  c #344271",
"B  c #3F477A",
"V  c #324878",
"C  c #365373",
"Z  c #6E4A4D",
"A  c #754343",
"S  c #714749",
"D  c #6B4D53",
"F  c #65535C",
"G  c #7C5D5F",
"H  c #4D4B62",
"J  c #4D4D69",
"K  c #524760",
"L  c #4C506C",
"P  c #465A75",
"I  c #615663",
"U  c #7A5E61",
"Y  c #776065",
"T  c #786064",
"R  c #AF394E",
"E  c #B0374C",
"W  c #AB3C52",
"Q  c #8F4F6C",
"!  c #964A66",
"~  c #984964",
"^  c #885373",
"/  c #80597C",
"(  c #0D5982",
")  c #1C5D82",
"_  c #2C5588",
"`  c #2A5A8F",
"'  c #275F95",
"]  c #3E6585",
"[  c #5F6D97",
"{  c #5E6F99",
"}  c #59729E",
"|  c #67678E",
" . c #6D6388",
".. c #776085",
"X. c #636B93",
"o. c #5575A2",
"O. c #927C8C",
"+. c #7886A0",
"@. c #7B96CE",
"#. c #6F99D4",
"$. c #7498D1",
"%. c #9C809E",
"&. c #8F85A7",
"*. c #8C86A9",
"=. c #9483A3",
"-. c #9A81A0",
";. c #8989B8",
":. c #9E98BE",
">. c #A697BB",
",. c #8294CB",
"<. c #9E97CE",
"1. c #9B98CF",
"2. c #9A9AD1",
"3. c #C2C5FC",
"4. c #C5C8F9",
"5. c #DADAFF",
"6. c #FFDBFF",
"7. c #E6EAFF",
"8. c #FFF2FF",
"9. c white",
"0. c None",
/* pixels */
"0.0.0.0.0.0.0.0.0.0.0.0.0.- : , s g j 4.4.4.0.0.0.0.0.0.0.0.0.0.0.0.0.0.0.0.0.0.",
"0.0.0.0.0.0.0.0.0.0.0.0.0.+ - : u d h ( 4.4.4.0.0.0.0.0.0.0.0.0.0.0.0.0.0.0.0.0.",
"0.0.0.0.0.0.0.0.0.0.0.0.0.o + : , u g j ( 4.4.4.0.0.0.0.0.0.0.0.0.0.0.0.0.0.0.0.",
"0.0.0.0.0.0.0.0.0.0.0.0.0.o + - : u s h ( 4.4.4.0.0.0.0.0.0.0.0.0.0.0.0.0.0.0.0.",
"0.0.0.0.0.0.0.0.0.0.0.0.0.W o + - : u f j 4.4.0.0.0.0.0.0.0.0.0.0.0.0.0.0.0.0.0.",
"0.0.0.0.0.0.0.0.0.0.0.0.R R W o + : , u g 4.4.0.0.0.0.0.0.0.0.0.0.0.0.0.0.0.0.0.",
"0.0.0.0.0.0.0.0.0.0.0.0.. R X ~ + - , u d 4.8.0.0.0.0.0.0.0.0.0.0.0.0.0.0.0.0.0.",
"0.0.0.0.0.0.0.0.0.0.0.    . . X ~ Q ^ / ..8.4.4.4.0.0.0.0.0.0.0.0.0.0.0.0.0.0.0.",
"0.0.0.0.0.0.0.0.0.0.        . . o + + : , s 4.4.4.4.0.0.0.0.0.0.0.0.0.0.0.0.0.0.",
"0.0.0.0.0.0.0.0.0.0.0.      A S X o + - : , u d 4.4.0.0.0.0.0.0.0.0.0.0.0.0.0.0.",
"0.0.0.0.0.0.0.0.0. .0. .K       S X o + - I , , 0.0.0.0.0.0.0.0.0.0.0.0.0.0.0.0.",
"0.0.0.0.0.0.0.0.A A % % K A %.%.%.%.Z D *.*.F F 0.0.0.0.0.0.0.0.0.0.0.0.0.0.0.0.",
"0.0.0.0.0.0.0.0.A % A % O.@ @ @ # @ %.&.2 5 5 F F 0.0.0.0.0.0.0.0.0.0.0.0.0.0.0.",
"0.0.0.0.0.0.0.0.A % A A O.A @ >.:.& # %.:.* L D D 0.0.0.0.0.0.0.0.0.0.0.0.0.0.0.",
"0.0.0.0.0.0.0.0.A % % A A t %.%.>.& %.%.-.& | J Z 0.0.0.0.0.0.0.0.0.0.0.0.0.0.0.",
"0.0.0.0.0.0.0.0.0.A A % 0.L %.%.%.%.%.%.-.-.%.J 0.Z 0.0.0.0.0.0.0.0.0.0.0.0.0.0.",
"0.0.0.0.0.0.0.0.0.0.K A 0.P O.%.G %.%.%.-.-.-.0.0.S 0.0.0.0.0.0.0.0.0.0.0.0.0.0.",
"0.0.0.0.0.0.0.0.0.A A % 0.0.^ %.%.G U %.-.-.0.0.0.S 0.0.0.0.0.0.0.0.0.0.0.0.0.0.",
"0.0.0.0.0.0.0.0.A A 0.0.0.0.G G %.%.%.%.-.0.0.0.S 0.0.0.0.0.0.0.0.0.0.0.0.0.0.0.",
"0.0.0.0.0.0.0.0.A A 0.0.0.0.G G U U %.0.0.0.0.0.S 0.0.0.0.0.0.0.0.0.0.0.0.0.0.0.",
"0.0.0.0.0.0.0.0.0.0.A 0.      U U U . 0.0.0.0.0.0.0.0.0.0.0.0.0.0.0.0.0.0.0.0.0.",
"0.0.0.0.0.0.0.q q q             . . . X t e e r r 0.0.0.0.0.0.0.0.0.U 0.0.0.0.0.",
"0.0.0.0.0.0.0.0.q q             1.1.1.X t e r 6.0.0.0.0.0.0.0.0.T T T 0.0.0.0.0.",
"0.0.0.0.0.0.0.0.q q q       <.<.1.1.1.o e e r 4.0.0.0.0.0.0.0.=.=.Y 0.0.0.0.0.0.",
"0.0.0.0.0.0.0.0.q q q     <.<.q 1.1.2.o e r y 3.3.0.0.0.0.0.&.=.&.=.=.X.&.0.0.0.",
"0.0.0.0.0.0.0.0.0.q q     q q q 0 w 2.o e r - 3.3.0.0.0.0.0.= O o 0.0.*.*.0.0.0.",
"0.0.0.0.0.0.0.0.0.q q   q q q q 0 0 w X e r - ; 3.3.0.0.0.- = O O 0.0.0.{ +.0.0.",
"0.0.0.0.0.0.0.0.1 1 1   q q q q 0 w w X e r = ; 3.3.0.0.0.= = = 0.0.0.0.} 0.0.0.",
"0.0.0.0.0.0.0.0.1 1 1   q q q q q 0 w X o 0.0.; ; 3.0.0.3.- = 0.0.0.0.0.o.$.0.0.",
"0.0.0.0.0.0.0.0.1 1 1   7 7 q q 0 0 8 X o 0.0.- ; ; ; ; ; = = 0.0.0.0.0.0.] 0.0.",
"0.0.0.0.0.0.0.1 1 1     7 7 9 7 9 8 8 X o 0.0.0.; ; ; ; ; = = 0.0.0.0.0.o.#.0.0.",
"0.0.0.0.0.0.0.1 1 1   7 7 7 9 9 9 9 8 X o 0.0.0.0.; ; ; ; ; 0.0.0.0.0.0.o.0.0.0.",
"0.0.0.0.0.0.0.1 1     7 7 7 7   9 9 n o o o 0.0.0.: > ; ; ; 0.0.0.0.0.0.o.$.0.0.",
"0.0.0.0.0.0.0.1 1     7 7 7   7   9 9 n o + + 0.0.0.> > > 0.0.0.0.0.0.0.0.] 0.0.",
"0.0.0.0.0.0.0.1 1     7 7 7 7   9 9 9 n o + - 0.0.0.0.< 0.0.0.0.0.0.0.0.C o.9.0.",
"0.0.0.0.0.0.1 1 1     7 7 7   7 . 9 n n + + : : 0.0.0.0.0.0.0.0.0.0.0.m @.@.$.9.",
"0.0.0.0.0.0.1 1     7 9 7 7 @ @ @ 9 8 N + - : , 0.0.0.0.0.0.0.0.0.0.0.} ,.P @.C ",
"0.0.0.0.0.0.1 1     7 9 @ @ @ @ # # n N + : : < 4.0.0.0.0.0.0.0.0.0.0.X.,.,.P m ",
"0.0.0.0.0.H H 1   7 @ @ @ @ @ @ # # # 2 V : > s 4.4.0.0.0.0.0.0.0.0.0.0.X.b b 0.",
"0.0.0.0.2.2.H     7 @ @ @ @ @ @ # # 2 2 5 : , s 4.4.0.0.0.0.0.0.0.0.0.0.0.0.0.0.",
"0.0.2.2.2.;.K     @ @ @ @ @ @ @ # # 2 3 4 : < d 4.4.4.0.0.0.0.0.0.0.0.0.0.0.0.0.",
"0.2.2.;.;.0..   @ @ @ @ @ @ @ 0.# # # 3 4 p < d 4.4.4.0.0.0.0.0.0.0.0.0.0.0.0.0.",
";.;.;.0.0..     @ @ @ @ @ 0.0.0.@ # 2 2 4 p < d j 4.0.0.0.0.0.0.0.0.0.0.0.0.0.0.",
"0.0.0.0.0.      @ @ @ @ @ 0.0.0.0.0.# 2 4 p x d h 4.0.0.0.0.0.0.0.0.0.0.0.0.0.0.",
"0.0.0.0..       @ @ @ @ 0.0.0.0.0.0.0.2 5 p x u h 0.0.0.0.0.0.0.0.0.0.0.0.0.0.0.",
"0.0.0.. . .     @ @ @ @ 0.0.0.0.0.0.0.2 5 i p M g 0.0.0.0.0.0.0.0.0.0.0.0.0.0.0.",
"0.0.0.    8   0.@ @ @ @ 0.0.0.0.0.0.0.0.5 4 p M f 4.0.0.0.0.0.0.0.0.0.0.0.0.0.0.",
"0.0.0.0.P 0.  0.@ @ @ @ 0.0.0.0.0.0.0.0.3 4 p v k j 4.0.0.0.0.0.0.0.0.0.0.0.0.0.",
"0.0.0.0.0.0.0.@ @ @ @ @ 0.0.0.0.0.0.0.0.0.0.p c M z 4.4.0.0.0.0.0.0.0.0.0.0.0.0.",
"0.0.0.0.0.0.0.@ @ @ @ @ 0.0.0.0.0.0.0.0.0.0.6 x M l 5.0.0.0.0.0.0.0.0.0.0.0.0.0.",
"0.0.0.0.0.0.0.@ @ @ @ 0.0.0.0.0.0.0.0.0.0.0.0.p v l 5.0.0.0.0.0.0.0.0.0.0.0.0.0.",
"0.0.0.0.0.@ @ @ @ @ @ 0.0.0.0.0.0.0.0.0.0.0.0.0.d k _ 5.0.0.0.0.0.0.0.0.0.0.0.0.",
"0.0.0.0.0.@ @ @ @ @ 0.0.0.0.0.0.0.0.0.0.0.0.0.0.x M z 5.0.0.0.0.0.0.0.0.0.0.0.0.",
"0.0.0.0.0.@ @ @ @ 0.0.0.0.0.0.0.0.0.0.0.0.0.0.0.0.v z 5.0.0.0.0.0.0.0.0.0.0.0.0.",
"0.0.0.0.@ @ @ @ @ 0.0.0.0.0.0.0.0.0.0.0.0.0.0.0.0.v k ) 5.0.0.0.0.0.0.0.0.0.0.0.",
"0.0.0.0.@ @ @ @ 0.0.0.0.0.0.0.0.0.0.0.0.0.0.0.0.0.x M z 5.0.0.0.0.0.0.0.0.0.0.0.",
"0.0.0.0.@ @ @ @ 0.0.0.0.0.0.0.0.0.0.0.0.0.0.0.0.0.p v l 5.5.0.0.0.0.0.0.0.0.0.0.",
"0.0.0.0.@     0.0.0.0.0.0.0.0.0.0.0.0.0.0.0.0.0.0.p < M z 5.0.0.0.0.0.0.0.0.0.0.",
"0.0.9         0.0.0.0.0.0.0.0.0.0.0.0.0.0.0.0.0.0.0.> u d 4.0.0.0.0.0.0.0.0.0.0.",
"0.0.9 9 9 9   0.0.0.0.0.0.0.0.0.0.0.0.0.0.0.0.0.0.0.: , ` ' 7.0.0.0.0.0.0.0.0.0.",
"0.0.0.9 9 0.0.0.0.0.0.0.0.0.0.0.0.0.0.0.0.0.0.0.0.0.0.: _ ` 7.0.0.0.0.0.0.0.0.0."
};
