/* XPM */
static char *result[] = {
/* columns rows colors chars-per-pixel */
"34 56 97 2 ",
"   c black",
".  c #000001",
"X  c #000003",
"o  c #000004",
"O  c #000008",
"+  c #01000A",
"@  c #01000C",
"#  c #01000D",
"$  c #01000E",
"%  c #010012",
"&  c #010013",
"*  c #010014",
"=  c #010015",
"-  c #010016",
";  c #010018",
":  c #01001A",
">  c #01001B",
",  c #01001C",
"<  c #01001D",
"1  c #01001E",
"2  c #01001F",
"3  c #010020",
"4  c #010021",
"5  c #010022",
"6  c #010023",
"7  c #010025",
"8  c #010026",
"9  c #010028",
"0  c #010029",
"q  c #01002A",
"w  c #01002B",
"e  c #01002D",
"r  c #020039",
"t  c #02003A",
"y  c #02003C",
"u  c #02003E",
"i  c #0C123E",
"p  c #0C123F",
"a  c #0C1242",
"s  c #0C1244",
"d  c #0C1247",
"f  c #0C1248",
"g  c #0C114B",
"h  c #0C114C",
"j  c #0C114E",
"k  c #231F54",
"l  c #221F56",
"z  c #221F57",
"x  c #211F5B",
"c  c #211E5C",
"v  c #201D5E",
"b  c #252344",
"n  c #252345",
"m  c #252346",
"M  c #252347",
"N  c #252348",
"B  c #252349",
"V  c #24214B",
"C  c #25224A",
"Z  c #24224B",
"A  c #23214E",
"S  c #23214F",
"D  c #24214C",
"F  c #24214D",
"G  c #24214E",
"H  c #232150",
"J  c #232151",
"K  c #232052",
"L  c #232152",
"P  c #232053",
"I  c #232054",
"U  c #1F1B67",
"Y  c #1F1C65",
"T  c #1F1C66",
"R  c #1F1B68",
"E  c #1E1B69",
"W  c #1E1B6A",
"Q  c #1E1B6B",
"!  c #1E1B6C",
"~  c #1E1A6D",
"^  c #1E196F",
"/  c #1E1A6E",
"(  c #1E1A6F",
")  c #201D61",
"_  c #201D63",
"`  c #201C64",
"'  c #201C65",
"]  c #122B6C",
"[  c #122B6D",
"{  c #122A6E",
"}  c #4A4685",
"|  c #494586",
" . c #484488",
".. c #2E14E1",
"X. c #5437E5",
"o. c #7483DF",
"O. c None",
/* pixels */
"O.O.O.O.O.O.O.O.O.O.O.O.O.O.O.O.} } O.O.O.O.O.O.O.O.O.O.O.O.O.O.O.O.",
"O.O.O.O.O.O.O.O.O.O.O.O.O.} } } } } } } } O.O.O.O.O.O.O.O.O.O.O.O.O.",
"O.O.O.O.O.O.O.O.O.O.O.b } } } } } } } } } } ] O.O.O.O.O.O.O.O.O.O.O.",
"O.O.O.O.O.O.O.O.O.O.b b } } } } } } } } } } } ] O.O.O.O.O.O.O.O.O.O.",
"O.O.O.O.O.O.O.O.O.b b } } } } } } } } } } } } } ] O.O.O.O.O.O.O.O.O.",
"O.O.O.O.O.O.O.O.O.b b } } } } } } } } } } } } } ] O.O.O.O.O.O.O.O.O.",
"O.O.O.O.O.O.O.O.b b b } } } } } } } } } } } } } } ] O.O.O.O.O.O.O.O.",
"O.O.O.O.O.O.O.O.b b b } } } } } } } } } } o.} } } ] O.O.O.O.O.O.O.O.",
"O.O.O.O.O.O.O.O.b b b } } } } } } } } } } } } } } ] O.O.O.O.O.O.O.O.",
"O.O.O.O.O.O.O.b b b b b } } } } } } } } } } o.o.} } ] O.O.O.O.O.O.O.",
"O.O.O.O.O.O.O.b b b b b b } } } } } } } } } o.o.} } ] O.O.O.O.O.O.O.",
"O.O.O.O.O.O.O.O.b b b b b b } } } } } } } } o.o.b b O.O.O.O.O.O.O.O.",
"O.O.O.O.O.O.O.O.b b b b b b b b b } } } } } b b b b O.O.O.O.O.O.O.O.",
"O.O.O.O.O.O.O.O.b b b b b b b b b b b b b b b b b b O.O.O.O.O.O.O.O.",
"O.O.O.O.O.O.O.O.O.b b b b b b b b b b b b b b b b O.O.O.O.O.O.O.O.O.",
"O.O.O.O.O.O.O.O.O.b b b b b b b b b b b b b b b b O.O.O.O.O.O.O.O.O.",
"O.O.O.O.O.O.O.O.O.O.b b b b b b b b b b b b b b O.O.O.O.O.O.O.O.O.O.",
"O.O.O.O.O.O.O.O.O.O.  b b b b b b b b b b b b   O.O.O.O.O.O.O.O.O.O.",
"O.O.O.O.O.O.O.O.O.b b     b b b b b b b b     b ] O.O.O.O.O.O.O.O.O.",
"O.O.O.O.O.O.O.O.O.b b b b       b b       b b } ] O.O.O.O.O.O.O.O.O.",
"O.O.O.O.O.O.O.O.O.b b b b b b         b b b } } ] O.O.O.O.O.O.O.O.O.",
"O.O.O.O.O.O.O.O.O.O.b b b b b b b b b b b b } } O.O.O.O.O.O.O.O.O.O.",
"O.O.O.O.O.O.O.O.O.O.O.b b b b b b b b b b b b O.O.O.O.O.O.O.O.O.O.O.",
"O.O.O.O.O.O.O.O.O.O.O.      b b b b b b     ] O.O.O.O.O.O.O.O.O.O.O.",
"O.O.O.O.O.O.O.O.O.O.O.                      ] O.O.O.O.O.O.O.O.O.O.O.",
"O.O.O.O.O.O.O.O.O.O.  b b b             b b } ] O.O.O.O.O.O.O.O.O.O.",
"O.O.O.O.O.O.O.O.O.O.  b b b b b b b b b b b } ] O.O.O.O.O.O.O.O.O.O.",
"O.O.O.O.O.O.O.O.O.O.  b b b b b b b b b b } } ] O.O.O.O.O.O.O.O.O.O.",
"O.O.O.O.O.O.O.O.O.O.  b b b b b b b b b b } } ] O.O.O.O.O.O.O.O.O.O.",
"O.O.O.O.O.O.O.O.O.  b b b b b b b b b b } } } } ] O.O.O.O.O.O.O.O.O.",
"O.O.O.O.O.O.O.O.O.  b b b b b b b b b b b } o.} ] O.O.O.O.O.O.O.O.O.",
"O.O.O.O.O.O.O.O.  b b b b b b b b b b b b } } } } ] O.O.O.O.O.O.O.O.",
"O.O.O.O.O.O.O.O.  b b b b b b b b b b b b b o.o.} ] O.O.O.O.O.O.O.O.",
"O.O.O.O.O.O.O.  b b b b b b b b b b b b b b o.o.} } ] O.O.O.O.O.O.O.",
"O.O.O.O.O.O.O.  b b b b b b b b b b b b b b b o.} } ] O.O.O.O.O.O.O.",
"O.O.O.O.O.O.  b b b b b b b b b b b b b b b b b } } } ] O.O.O.O.O.O.",
"O.O.O.O.    b b b b b b b b b b b b b b b b b b b } } } ] ] O.O.O.O.",
"O.O.O.  b b b b b b b b b b b b b b b b b b b b b } } }   } ] O.O.O.",
"O.O.X . b b b b b b b b b b b b b b b b b b b b b b } }   } } ] O.O.",
"O.C o n b b   b b b b b b b b b b b b b b b b b b b b   } } } [ n O.",
"O.+ o n n b b     b b b b b b b b b b b b b b b b     b b b } | { O.",
"K @ B m n b b b       b b b b b b b b b b b b       b b b n n |  .Z ",
"I $ C M n n b b b           b b b b b b           b b n n n m N O G ",
"z % V N m n n b b b b                         b b b n n n M N C # L ",
"x - A Z N m n n b b b b b b             b b b b n n n m N B Z G & l ",
"v , * G C N m n n n b b b b b b b b b b b b n n n m M N C D S = > c ",
"' c : & G Z N M m n n n b b b b b b b n n n n m N N C V A J k 1 v ` ",
"W _ c : K A V C B N M M m n n n n n m m M N N C Z V G H I p 4 9 Y ! ",
"O.E _ 6 , I J A D Z C C C B B N N B B C C Z V F S J I i a d h R / O.",
"O.^ W ' 8 x > - * H S G F F D D D D F G A H J P k p a d g T ! u X.O.",
"O.O.^ r U _ 7 3 < : ; - = K K K K K P I I ; p a s f h T Q ( ..X.O.O.",
"O.O.O.X.u Q U ` ) 7 5 3 2 2 1 < < 1 2 2 4 6 8 g j U ! ( ..X.X.O.O.O.",
"O.O.O.O.X.X.u r E U Y ` _ q 0 9 9 0 q w e Y U Q / X...X.X.X.O.O.O.O.",
"O.O.O.O.O.O.X.X.X.u y t ! ! Q W W Q ! ~ / ( u ....X.X.X.O.O.O.O.O.O.",
"O.O.O.O.O.O.O.O.X.X.X.X.X.................X.X.X.X.X.O.O.O.O.O.O.O.O.",
"O.O.O.O.O.O.O.O.O.O.O.O.X.X.X.X.X.X.X.X.X.X.O.O.O.O.O.O.O.O.O.O.O.O."
};
