/* XPM */
static char *_2c375bbd09a402c8d12b048d257c8bct3en1O9BUfORYr7b[] = {
/* columns rows colors chars-per-pixel */
"58 59 54 1 ",
"  c None",
". c #2D1732",
"X c #2A1937",
"o c #331B3A",
"O c #341E43",
"+ c #3A244E",
"@ c #3A2C50",
"# c #433463",
"$ c #423564",
"% c #433564",
"& c #423665",
"* c #443667",
"= c #4D417F",
"- c #4E407E",
"; c #4E407F",
": c #4D4180",
"> c #4D4280",
", c #4C4281",
"< c #4C4381",
"1 c #4C4382",
"2 c #4B4483",
"3 c #4B4583",
"4 c #4C4482",
"5 c #544D8F",
"6 c #534E90",
"7 c #524F91",
"8 c #534F91",
"9 c #524F92",
"0 c #515093",
"q c #515193",
"w c #525092",
"e c #505194",
"r c #5A599F",
"t c #575CA2",
"y c #565DA3",
"u c #565DA4",
"i c #555EA4",
"p c #555EA5",
"a c #545FA5",
"s c #545FA6",
"d c #595AA0",
"f c #595AA1",
"g c #585BA1",
"h c #585BA2",
"j c #5F58A0",
"k c #5360A6",
"l c #6A65BF",
"z c #6B65BF",
"x c #6C64BE",
"c c #6767C1",
"v c #6966C0",
"b c #6967C0",
"n c #6668C1",
"m c #5A599F",
/* pixels */
"                            mm                            ",
"                          43uumm                          ",
"                        >>dttuuumm                        ",
"                      --dddttuuuuumm                      ",
"                    --rdddddttuukkkkmm                    ",
"                  --rrrrddddtttuuukkkkmm                  ",
"                --rrrrrrdddddtttuuuuuukkmm                ",
"              --rrrrrrrrrddddddtttuuuuuukkmm              ",
"            --rrrrrrrrrrrrdddddddtttuuuukukkmm            ",
"          --rrrrrrrrrrrrrrrrdddddddtttuuuuuukkmm          ",
"        --rrrrrrrrrrrrrrrrrrrrdddddddtttuuuuuukkmm        ",
"      --rrrrrrrrrrrrrrrrrrrrrrrrdddddddtttuuuuuukkmm      ",
"    --rrrrrrrrrrrrrrrrrrrrrrrrrrrrddddddttttuuuuuukkmm    ",
"  --rrrrrrrrrrrrrrrrrrrrrrrrrrrrrrrrddddttttttuuuuuuuumm  ",
"--rrrrrrrrrrrrrrrrrrrrrrrrrrrrrrrrrrrrdddddddtttuuuuuuuumm",
"-jxxrrrrrrrrrrrrrrrrrrrrrrrrrrrrrrrrrrrrdddddddtttuuuunne3",
"-jjjxxrrrrrrrrrrrrrrrrrrrrrrrrrrrrrrrrrrrrdddddddtttcceqq3",
"-jjjjjxxrrrrrrrrrrrrrrrrrrrrrrrrrrrrrrrrrrrrddddddbbqqqqq>",
"-jjjjjjjxxrrrrrrrrrrrrrrrrrrrrrrrrrrrrrrrrrrrrddzz999qqq9>",
"-jjjjjjjjjxxrrrrrrrrrrrrrrrrrrrrrrrrrrrrrrrrrrxx999999999>",
"--jjjjjjjjjjxxrrrrrrrrrrrrrrrrrrrrrrrrrrrrrrxx5555999999&>",
"-j--jjjjjjjjjjxxrrrrrrrrrrrrrrrrrrrrrrrrrrxx5555555555&&9-",
"-jjj--jjjjjjjj-jxxrrrrrrrrrrrrrrrrrrrrrrxx5#55555555##555-",
"-jjjjj--jjjjjj-jjjxxrrrrrrrrrrrrrrrrrrxx555#555555##55555-",
"-jjjjj-j--jjjj-jjjjjxxrrrrrrrrrrrrrrxx55555#5555##5#55555-",
"-jjjjj-jjj--jj-jjjjjjjxxrrrrrrrrrrxx5555555#55##555#55555-",
"--jjjj+jjjjj**+jjjjjjjjjxxrrrrrrxx555555555o@@55555o5555#-",
"-j--jj*jjjjjjj+*jjjjjjjjjjxxrrxx5555555555@o5555555@55##5-",
"-jjj--*jjjjjjjjj--jjjjjjjjjjxx5555555555##555555555@##555-",
"-jjjjj--jjjjjjjjjj--jjjjjjjjxx55555555##5555555555##55555-",
"-jjjjjjj++jjjjjjjjjj--jjjjjjxx555555##5555555555oo5555555-",
"-jjjjjjjjj--jjjjjjjjjj--jjjjxx5555##5555555555##555555555-",
"-Ojjjjjjjjjj--jjjjjjjj-j--jjxx55##5#55555555##5555555555.-",
"-j++jjjjjjjjjj--jjjjjj-jjj--xx##555#555555##5555555555oo5-",
"-jjj-+jjjjjjjj-j-+jjjj-jjjjjxx55555#5555o#5#55555555o#555-",
"-jjjjj--jjjjjj-jjj-Ojj+jjjjjxx55555o55.#555#555555##55555-",
"-jjjjj-j-+jjjj-jjjjj**+jjjjjxx55555o@@55555#5555o#5#55555-",
"-jjjjj-jjj--jj-jjjjjjj**jjjjxx5555@@5555555#55##555#55555-",
"--jjjj-jjjjj---jjjjjjjjj--jjxx55##555555555###55555#5555#-",
"-j--jj*jjjjjjj--jjjjjjjjjj--xx##5555555555##5555555@55##5-",
"-jjj--*jjjjjjjjj--jjjjjjjjjjxx5555555555##555555555@##555-",
"-jjjjj++jjjjjjjjjj--jjjjjjjjxx55555555##5555555555oo55555-",
"-jjjjjjj--jjjjjjjjjj--jjjjjjxx555555##5555555555##5555555-",
"-jjjjjjjjj--jjjjjjjjjj--jjjjxx5555##5555555555##555555555-",
"XXjjjjjjjjjj--jjjjjjjj-j--jjxx55##5#55555555##5555555555XX",
"  XXjjjjjjjjjj**jjjjjj-jjj--xx##555#555555@@5555555555XX  ",
"    XXjjjjjjjj*j+Ojjjj-jjjjjxx55555#5555.o5@55555555XX    ",
"      XXjjjjjj*jjj-+jj-jjjjjxx55555#55o#555@555555XX      ",
"        XXjjjj*jjjjj---jjjjjxx55555###55555@5555XX        ",
"          XXjj-jjjjjjj--jjjjxx5555##5555555#55XX          ",
"            XX-jjjjjjjjj--jjxx55##555555555#XX            ",
"              XXjjjjjjjjjj--xx##5555555555XX              ",
"                XXjjjjjjjjjjxx5555555555XX                ",
"                  XXjjjjjjjjxx55555555XX                  ",
"                    XXjjjjjjxx555555XX                    ",
"                      XXjjjjxx5555XX                      ",
"                        XXjjxx55XX                        ",
"                          XXxxXX                          ",
"                            XX                            "
};
